# xmcd
#
# Track frame offsets:
#	150
#	17752
#	33461
#	48809
#	60286
#	77705
#	97168
#	114314
#	136452
#	147299
#	165128
#	180515
#
# Disc length: 2538 seconds
#
# Revision: 1
# Processed by: cddbd v1.5.2PL0 Copyright (c) Steve Scherf et al.
# Submitted via: audiograbber 1.82.02
#
DISCID=8f09e80c
DTITLE=Ken "Chainsaw" Lindsay - From Crosscut to Chainshaw
DYEAR=2007
DGENRE=Country
TTITLE0=Grandfather Quandong
TTITLE1=A Word To Texas Jack
TTITLE2=From Crosscut to Chainshaw
TTITLE3=Kangabloodyroo
TTITLE4=Nowhere Else
TTITLE5=Diamantina Drover
TTITLE6=Sweeney
TTITLE7=Shopping On A Saturday
TTITLE8=Everything Except
TTITLE9=Home In Dirranbandi
TTITLE10=Heaven's Party
TTITLE11=Loosin' My Blues Tonight
EXTD=
EXTT0=
EXTT1=
EXTT2=
EXTT3=
EXTT4=
EXTT5=
EXTT6=
EXTT7=
EXTT8=
EXTT9=
EXTT10=
EXTT11=
PLAYORDER=
